<svg xmlns="http://www.w3.org/2000/svg" viewBox="0 0 200 200" width="200" height="200">
  <defs>
    <style>
      .orange { stroke: #F29C38; fill: none; stroke-width: 8; stroke-linecap: round; }
      .green { stroke: #2E7D32; fill: none; stroke-width: 8; stroke-linecap: round; }
    </style>
  </defs>
  
  <!-- Top Orange -->
  <path class="orange" d="M 80,10 A 90,90 0 0,0 10,80" />
  <path class="orange" d="M 95,10 A 75,75 0 0,0 25,80" />
  <path class="orange" d="M 110,10 A 60,60 0 0,0 40,80" />
  <path class="orange" d="M 125,10 A 45,45 0 0,0 55,80" />

  <!-- Right Orange -->
  <path class="orange" d="M 190,80 A 90,90 0 0,0 120,10" />
  <path class="orange" d="M 190,95 A 75,75 0 0,0 105,25" />
  <path class="orange" d="M 190,110 A 60,60 0 0,0 90,40" />
  <path class="orange" d="M 190,125 A 45,45 0 0,0 75,55" />

  <!-- Bottom Green -->
  <path class="green" d="M 120,190 A 90,90 0 0,0 190,120" />
  <path class="green" d="M 105,190 A 75,75 0 0,0 175,120" />
  <path class="green" d="M 90,190 A 60,60 0 0,0 160,120" />
  <path class="green" d="M 75,190 A 45,45 0 0,0 145,120" />

  <!-- Left Green -->
  <path class="green" d="M 10,120 A 90,90 0 0,0 80,190" />
  <path class="green" d="M 25,120 A 75,75 0 0,0 95,190" />
  <path class="green" d="M 40,120 A 60,60 0 0,0 110,190" />
  <path class="green" d="M 55,120 A 45,45 0 0,0 125,190" />
</svg>
